<mxfile host="app.diagrams.net" modified="2022-03-05T10:05:49.971Z" agent="5.0 (Windows NT 10.0; Win64; x64) AppleWebKit/537.36 (KHTML, like Gecko) Chrome/98.0.4758.102 Safari/537.36" etag="lCns4EpenfAoME4nBZzF" version="16.6.6" type="github">
  <diagram id="C5RBs43oDa-KdzZeNtuy" name="Page-1">
    <mxGraphModel dx="852" dy="376" grid="1" gridSize="10" guides="1" tooltips="1" connect="1" arrows="1" fold="1" page="1" pageScale="1" pageWidth="827" pageHeight="1169" math="0" shadow="0">
      <root>
        <mxCell id="WIyWlLk6GJQsqaUBKTNV-0" />
        <mxCell id="WIyWlLk6GJQsqaUBKTNV-1" parent="WIyWlLk6GJQsqaUBKTNV-0" />
        <mxCell id="7WNQ4_Zc2j_nTq8plfHU-2" value="" style="edgeStyle=orthogonalEdgeStyle;rounded=0;orthogonalLoop=1;jettySize=auto;html=1;" edge="1" parent="WIyWlLk6GJQsqaUBKTNV-1" source="7WNQ4_Zc2j_nTq8plfHU-0" target="7WNQ4_Zc2j_nTq8plfHU-1">
          <mxGeometry relative="1" as="geometry" />
        </mxCell>
        <mxCell id="7WNQ4_Zc2j_nTq8plfHU-0" value="Излизам от апартамента" style="rounded=0;whiteSpace=wrap;html=1;fillColor=#f5f5f5;fontColor=#333333;strokeColor=#666666;" vertex="1" parent="WIyWlLk6GJQsqaUBKTNV-1">
          <mxGeometry x="160" y="170" width="120" height="60" as="geometry" />
        </mxCell>
        <mxCell id="7WNQ4_Zc2j_nTq8plfHU-6" value="" style="edgeStyle=orthogonalEdgeStyle;rounded=0;orthogonalLoop=1;jettySize=auto;html=1;" edge="1" parent="WIyWlLk6GJQsqaUBKTNV-1" source="7WNQ4_Zc2j_nTq8plfHU-1" target="7WNQ4_Zc2j_nTq8plfHU-5">
          <mxGeometry relative="1" as="geometry" />
        </mxCell>
        <mxCell id="7WNQ4_Zc2j_nTq8plfHU-1" value="Качвам се в асансьора" style="rounded=0;whiteSpace=wrap;html=1;fillColor=#f5f5f5;fontColor=#333333;strokeColor=#666666;" vertex="1" parent="WIyWlLk6GJQsqaUBKTNV-1">
          <mxGeometry x="160" y="280" width="120" height="60" as="geometry" />
        </mxCell>
        <mxCell id="7WNQ4_Zc2j_nTq8plfHU-4" value="" style="edgeStyle=orthogonalEdgeStyle;rounded=0;orthogonalLoop=1;jettySize=auto;html=1;" edge="1" parent="WIyWlLk6GJQsqaUBKTNV-1" source="7WNQ4_Zc2j_nTq8plfHU-3" target="7WNQ4_Zc2j_nTq8plfHU-0">
          <mxGeometry relative="1" as="geometry" />
        </mxCell>
        <mxCell id="7WNQ4_Zc2j_nTq8plfHU-3" value="&lt;span&gt;Трябва да отида на работа&lt;/span&gt;" style="ellipse;whiteSpace=wrap;html=1;fillColor=#f8cecc;strokeColor=#b85450;" vertex="1" parent="WIyWlLk6GJQsqaUBKTNV-1">
          <mxGeometry x="162.5" y="60" width="115" height="70" as="geometry" />
        </mxCell>
        <mxCell id="7WNQ4_Zc2j_nTq8plfHU-8" value="" style="edgeStyle=orthogonalEdgeStyle;rounded=0;orthogonalLoop=1;jettySize=auto;html=1;" edge="1" parent="WIyWlLk6GJQsqaUBKTNV-1" source="7WNQ4_Zc2j_nTq8plfHU-5" target="7WNQ4_Zc2j_nTq8plfHU-7">
          <mxGeometry relative="1" as="geometry" />
        </mxCell>
        <mxCell id="7WNQ4_Zc2j_nTq8plfHU-5" value="Излизам от сградата" style="whiteSpace=wrap;html=1;rounded=0;fillColor=#f5f5f5;fontColor=#333333;strokeColor=#666666;" vertex="1" parent="WIyWlLk6GJQsqaUBKTNV-1">
          <mxGeometry x="160" y="400" width="120" height="60" as="geometry" />
        </mxCell>
        <mxCell id="7WNQ4_Zc2j_nTq8plfHU-10" value="" style="edgeStyle=orthogonalEdgeStyle;rounded=0;orthogonalLoop=1;jettySize=auto;html=1;" edge="1" parent="WIyWlLk6GJQsqaUBKTNV-1" source="7WNQ4_Zc2j_nTq8plfHU-7" target="7WNQ4_Zc2j_nTq8plfHU-9">
          <mxGeometry relative="1" as="geometry" />
        </mxCell>
        <mxCell id="7WNQ4_Zc2j_nTq8plfHU-7" value="Вървя до метрото" style="whiteSpace=wrap;html=1;rounded=0;fillColor=#f5f5f5;fontColor=#333333;strokeColor=#666666;" vertex="1" parent="WIyWlLk6GJQsqaUBKTNV-1">
          <mxGeometry x="160" y="525" width="120" height="60" as="geometry" />
        </mxCell>
        <mxCell id="7WNQ4_Zc2j_nTq8plfHU-12" value="" style="edgeStyle=orthogonalEdgeStyle;rounded=0;orthogonalLoop=1;jettySize=auto;html=1;" edge="1" parent="WIyWlLk6GJQsqaUBKTNV-1" source="7WNQ4_Zc2j_nTq8plfHU-9" target="7WNQ4_Zc2j_nTq8plfHU-11">
          <mxGeometry relative="1" as="geometry" />
        </mxCell>
        <mxCell id="7WNQ4_Zc2j_nTq8plfHU-9" value="Качвам се на влака" style="whiteSpace=wrap;html=1;rounded=0;fillColor=#f5f5f5;fontColor=#333333;strokeColor=#666666;" vertex="1" parent="WIyWlLk6GJQsqaUBKTNV-1">
          <mxGeometry x="160" y="650" width="120" height="60" as="geometry" />
        </mxCell>
        <mxCell id="7WNQ4_Zc2j_nTq8plfHU-14" value="" style="edgeStyle=orthogonalEdgeStyle;rounded=0;orthogonalLoop=1;jettySize=auto;html=1;" edge="1" parent="WIyWlLk6GJQsqaUBKTNV-1" source="7WNQ4_Zc2j_nTq8plfHU-11" target="7WNQ4_Zc2j_nTq8plfHU-13">
          <mxGeometry relative="1" as="geometry" />
        </mxCell>
        <mxCell id="7WNQ4_Zc2j_nTq8plfHU-11" value="Слизам от влака" style="whiteSpace=wrap;html=1;rounded=0;fillColor=#f5f5f5;fontColor=#333333;strokeColor=#666666;" vertex="1" parent="WIyWlLk6GJQsqaUBKTNV-1">
          <mxGeometry x="160" y="790" width="120" height="60" as="geometry" />
        </mxCell>
        <mxCell id="7WNQ4_Zc2j_nTq8plfHU-16" value="" style="edgeStyle=orthogonalEdgeStyle;rounded=0;orthogonalLoop=1;jettySize=auto;html=1;" edge="1" parent="WIyWlLk6GJQsqaUBKTNV-1" source="7WNQ4_Zc2j_nTq8plfHU-13" target="7WNQ4_Zc2j_nTq8plfHU-15">
          <mxGeometry relative="1" as="geometry" />
        </mxCell>
        <mxCell id="7WNQ4_Zc2j_nTq8plfHU-13" value="Вървя пет минути" style="whiteSpace=wrap;html=1;rounded=0;fillColor=#f5f5f5;fontColor=#333333;strokeColor=#666666;" vertex="1" parent="WIyWlLk6GJQsqaUBKTNV-1">
          <mxGeometry x="160" y="930" width="120" height="60" as="geometry" />
        </mxCell>
        <mxCell id="7WNQ4_Zc2j_nTq8plfHU-15" value="Започвам работа" style="ellipse;whiteSpace=wrap;html=1;rounded=0;fillColor=#f8cecc;strokeColor=#b85450;" vertex="1" parent="WIyWlLk6GJQsqaUBKTNV-1">
          <mxGeometry x="160" y="1070" width="120" height="60" as="geometry" />
        </mxCell>
      </root>
    </mxGraphModel>
  </diagram>
</mxfile>
